<svg width="45" height="45" viewBox="0 0 45 45" fill="none" xmlns="http://www.w3.org/2000/svg">
<path d="M4.55889 42.6316C3.30519 42.6316 2.23157 42.1682 1.33803 41.2413C0.446011 40.3129 0 39.1974 0 37.8947V4.73684C0 3.43421 0.446011 2.31868 1.33803 1.39026C2.23157 0.463421 3.30519 0 4.55889 0H36.4711C37.7248 0 38.7984 0.463421 39.6919 1.39026C40.584 2.31868 41.03 3.43421 41.03 4.73684V18.1184C40.3081 17.7632 39.5673 17.4766 38.8075 17.2587C38.0477 17.0424 37.2689 16.875 36.4711 16.7566V4.73684H4.55889V26.0526H12.6509C13.1068 26.0526 13.5057 26.1608 13.8476 26.3771C14.1895 26.595 14.4555 26.8816 14.6454 27.2368C15.1773 28.1447 15.7661 28.8553 16.412 29.3684C17.0578 29.8816 17.7607 30.2566 18.5205 30.4934C18.4065 31.2829 18.3305 32.0818 18.2925 32.8903C18.2545 33.7003 18.2925 34.5 18.4065 35.2895C17.0388 35.0132 15.7563 34.4905 14.5588 33.7216C13.3629 32.9511 12.309 31.9737 11.3972 30.7895H4.55889V37.8947H18.9764C19.2423 38.7632 19.5462 39.5921 19.8881 40.3816C20.2301 41.1711 20.648 41.9211 21.1418 42.6316H4.55889ZM4.55889 37.8947H18.9764H4.55889ZM31.2854 41.4474C30.8295 41.25 30.4024 41.0432 30.0043 40.8268C29.6046 40.609 29.1959 40.3421 28.778 40.0263L26.3276 40.7961C26.0616 40.875 25.8147 40.8647 25.5867 40.7653C25.3588 40.6674 25.1688 40.5 25.0169 40.2632L23.6492 37.8947C23.4973 37.6579 23.4593 37.4013 23.5352 37.125C23.6112 36.8487 23.7442 36.6118 23.9341 36.4145L25.8147 34.6974C25.7387 34.2237 25.7007 33.7105 25.7007 33.1579C25.7007 32.6053 25.7387 32.0921 25.8147 31.6184L23.9341 29.9013C23.7442 29.7039 23.6112 29.4671 23.5352 29.1908C23.4593 28.9145 23.4973 28.6579 23.6492 28.4211L25.0169 26.0526C25.1688 25.8158 25.3588 25.6476 25.5867 25.5482C25.8147 25.4503 26.0616 25.4408 26.3276 25.5197L28.778 26.2895C29.1959 25.9737 29.6046 25.7068 30.0043 25.4889C30.4024 25.2726 30.8295 25.0658 31.2854 24.8684L31.7982 22.2632C31.8742 21.9868 31.9981 21.7603 32.1698 21.5834C32.34 21.405 32.577 21.3158 32.881 21.3158H35.6163C35.9202 21.3158 36.158 21.405 36.3298 21.5834C36.5 21.7603 36.623 21.9868 36.699 22.2632L37.2119 24.8684C37.6678 25.0658 38.0956 25.2726 38.4952 25.4889C38.8934 25.7068 39.3014 25.9737 39.7193 26.2895L42.1697 25.5197C42.4356 25.4408 42.6826 25.4503 42.9105 25.5482C43.1385 25.6476 43.3284 25.8158 43.4804 26.0526L44.848 28.4211C45 28.6579 45.038 28.9145 44.962 29.1908C44.886 29.4671 44.7531 29.7039 44.5631 29.9013L42.6826 31.6184C42.7585 32.0921 42.7965 32.6053 42.7965 33.1579C42.7965 33.7105 42.7585 34.2237 42.6826 34.6974L44.5631 36.4145C44.7531 36.6118 44.886 36.8487 44.962 37.125C45.038 37.4013 45 37.6579 44.848 37.8947L43.4804 40.2632C43.3284 40.5 43.1385 40.6674 42.9105 40.7653C42.6826 40.8647 42.4356 40.875 42.1697 40.7961L39.7193 40.0263C39.3014 40.3421 38.8934 40.609 38.4952 40.8268C38.0956 41.0432 37.6678 41.25 37.2119 41.4474L36.699 44.0526C36.623 44.3289 36.5 44.5555 36.3298 44.7324C36.158 44.9108 35.9202 45 35.6163 45H32.881C32.577 45 32.34 44.9108 32.1698 44.7324C31.9981 44.5555 31.8742 44.3289 31.7982 44.0526L31.2854 41.4474ZM34.2486 37.8947C35.5023 37.8947 36.5759 37.4313 37.4695 36.5045C38.3615 35.5761 38.8075 34.4605 38.8075 33.1579C38.8075 31.8553 38.3615 30.7397 37.4695 29.8113C36.5759 28.8845 35.5023 28.4211 34.2486 28.4211C32.9949 28.4211 31.9221 28.8845 31.0301 29.8113C30.1365 30.7397 29.6897 31.8553 29.6897 33.1579C29.6897 34.4605 30.1365 35.5761 31.0301 36.5045C31.9221 37.4313 32.9949 37.8947 34.2486 37.8947Z" fill="black"/>
</svg>
