<svg width="44" height="37" viewBox="0 0 44 37" fill="none" xmlns="http://www.w3.org/2000/svg">
<path d="M21.9999 23.5191C20.0043 23.5192 18.0095 23.0967 16.1904 22.2519L3.07367 16.1597C1.17162 15.2763 -0.00591998 13.5681 0.000261118 11.7016C0.00652463 9.83506 1.19552 8.13277 3.10342 7.25886L16.2532 1.23604C19.8516 -0.412014 24.1481 -0.412014 27.7465 1.23604L40.8963 7.25886C42.8042 8.1327 43.9932 9.83499 43.9994 11.7016C44.0056 13.5681 42.8281 15.2763 40.9261 16.1597L27.8092 22.2519C25.9907 23.0967 23.9949 23.519 21.9999 23.5191ZM21.9999 2.9768C20.5781 2.9768 19.1565 3.2736 17.8605 3.86719L4.71083 9.89009C3.91636 10.254 3.44041 10.9345 3.43786 11.7103C3.4353 12.4861 3.90655 13.1689 4.69864 13.5368L17.8155 19.629C20.4359 20.846 23.5643 20.846 26.1846 19.629L39.3016 13.5368C40.0937 13.1689 40.5649 12.4861 40.5623 11.7103C40.5598 10.9344 40.0838 10.254 39.2894 9.89009L26.1392 3.86719C24.8432 3.27367 23.4216 2.9768 21.9999 2.9768ZM17.057 2.55162H17.0578H17.057ZM27.8093 35.7206L43.0932 28.6221C43.9297 28.2336 44.2441 27.3314 43.7955 26.6071C43.3468 25.8828 42.305 25.6106 41.4685 25.9991L26.1845 33.0975C23.5643 34.3146 20.4358 34.3146 17.8087 33.0945L2.52479 26.0704C1.68613 25.6851 0.645815 25.9613 0.200941 26.6873C-0.244098 27.4133 0.0748464 28.3141 0.913333 28.6995L16.1905 35.7205C18.0096 36.5653 20.0044 36.9877 21.9999 36.9877C23.9949 36.9877 25.9907 36.5653 27.8093 35.7206ZM27.8093 29.0235L43.0932 21.925C43.9297 21.5365 44.2441 20.6343 43.7955 19.9101C43.3468 19.1857 42.305 18.9136 41.4685 19.302L26.1845 26.4005C23.5643 27.6176 20.4358 27.6174 17.8087 26.3974L2.52479 19.3734C1.68613 18.988 0.645815 19.2643 0.200941 19.9902C-0.244098 20.7163 0.0748464 21.6171 0.913333 22.0024L16.1905 29.0234C18.0096 29.8683 20.0044 30.2906 21.9999 30.2906C23.9949 30.2906 25.9907 29.8682 27.8093 29.0235Z" fill="#3A3A47"/>
</svg>
