<svg width="50" height="50" viewBox="0 0 50 50" fill="none" xmlns="http://www.w3.org/2000/svg">
<path d="M0 15.5925C0.000762989 19.2122 1.25536 22.7197 3.55003 25.5173C5.8447 28.3149 9.03747 30.2296 12.5844 30.9351C12.7864 28.6941 13.361 26.5025 14.2844 24.4509C11.5469 23.525 9.7875 21.423 9.375 18.439H7.8125V17.1065H9.26875V15.7489C9.26875 15.6051 9.26875 15.458 9.28125 15.3267H7.8125V13.991H9.40938C10.1125 10.0873 13.1656 7.77266 17.7531 7.77266C18.7406 7.77266 19.5969 7.86963 20.3125 8.03854V10.3313C19.4767 10.1452 18.6217 10.0591 17.7656 10.0748C14.8938 10.0748 12.9594 11.5325 12.3469 13.991H18.3375V15.3267H12.15C12.1406 15.4706 12.1406 15.6301 12.1406 15.7865V17.1065H18.3375V18.4421H12.2812C12.65 20.3251 13.7437 21.6639 15.4219 22.2864C17.0673 19.5587 19.3302 17.2563 22.028 15.5648C24.7259 13.8734 27.7831 12.8404 30.9531 12.549C30.1867 8.75018 28.039 5.37123 24.926 3.0667C21.813 0.762174 17.9563 -0.303901 14.103 0.0749824C10.2497 0.453866 6.67394 2.25074 4.06848 5.11754C1.46301 7.98434 0.0132405 11.717 0 15.5925H0ZM50 32.7963C50 37.359 48.1892 41.7348 44.9659 44.9611C41.7426 48.1875 37.3709 50 32.8125 50C28.2541 50 23.8824 48.1875 20.6591 44.9611C17.4358 41.7348 15.625 37.359 15.625 32.7963C15.625 28.2336 17.4358 23.8577 20.6591 20.6314C23.8824 17.4051 28.2541 15.5925 32.8125 15.5925C37.3709 15.5925 41.7426 17.4051 44.9659 20.6314C48.1892 23.8577 50 28.2336 50 32.7963ZM25.7812 36.9314C25.9969 39.5433 28.1125 41.5764 31.9187 41.8173V43.7441H33.6063V41.8048C37.5406 41.5358 39.8438 39.4901 39.8438 36.5185C39.8438 33.8129 38.0844 32.4209 34.9375 31.7015L33.6063 31.3887V26.1462C35.2938 26.3339 36.3688 27.2316 36.625 28.4766H39.5875C39.3688 25.9617 37.1531 23.9942 33.6063 23.7784V21.8484H31.9187V23.8159C28.5562 24.1381 26.2688 26.1056 26.2688 28.8895C26.2688 31.3512 27.9688 32.9183 30.8 33.5595L31.9187 33.8254V39.3931C30.1875 39.1429 29.0438 38.217 28.7844 36.9314H25.7812ZM31.9062 31.004C30.2437 30.6286 29.3438 29.8654 29.3438 28.7143C29.3438 27.4318 30.3156 26.4653 31.9187 26.1838V31.0008H31.9031L31.9062 31.004ZM33.85 34.2695C35.8656 34.7231 36.7969 35.4582 36.7969 36.7594C36.7969 38.242 35.6406 39.2617 33.6094 39.4494V34.2132L33.85 34.2695Z" fill="black"/>
</svg>
