<svg width="110" height="37" viewBox="0 0 110 37" fill="none" xmlns="http://www.w3.org/2000/svg">
<rect x="0.804348" y="0.804348" width="107.783" height="35.3913" fill="#F8F7EC" stroke="#1F6363" stroke-width="1.6087"/>
<rect x="3.21777" y="3.21777" width="72.3913" height="30.5652" fill="#1F6363"/>
<path d="M14.7339 8.81462V24.8262H10.874V8.81462H14.7339ZM24.2903 8.81462L18.088 16.9304L14.459 20.9003L13.7552 17.3592L16.0755 13.8402L19.5286 8.81462H24.2903ZM19.7265 24.8262L15.5917 17.6122L18.5938 15.4018L24.2903 24.8262H19.7265ZM25.28 8.81462H31.5812C32.8129 8.81462 33.8833 8.9979 34.7923 9.36447C35.7014 9.73103 36.4016 10.2736 36.8927 10.992C37.3913 11.7105 37.6405 12.5976 37.6405 13.6533C37.6405 14.5697 37.4976 15.3358 37.2117 15.9516C36.9257 16.5675 36.5262 17.077 36.013 17.4802C35.5071 17.8761 34.917 18.2023 34.2425 18.4589L32.9778 19.1737H27.6883L27.6663 16.1936H31.5812C32.0724 16.1936 32.4793 16.1056 32.8019 15.9296C33.1245 15.7537 33.3664 15.5044 33.5277 15.1819C33.6963 14.8519 33.7806 14.4597 33.7806 14.0052C33.7806 13.5433 33.6963 13.1474 33.5277 12.8175C33.3591 12.4876 33.1098 12.2347 32.7799 12.0587C32.4573 11.8828 32.0578 11.7948 31.5812 11.7948H29.1399V24.8262H25.28V8.81462ZM34.0445 24.8262L30.5035 17.7441L34.5944 17.7221L38.1794 24.6612V24.8262H34.0445ZM50.9908 21.857V24.8262H42.4572V21.857H50.9908ZM43.8318 8.81462V24.8262H39.9719V8.81462H43.8318ZM49.8911 15.1709V18.0411H42.4572V15.1709H49.8911ZM51.0238 8.81462V11.7948H42.4572V8.81462H51.0238ZM56.2694 23.3746L59.4585 8.81462H61.3609L62.3947 10.0573L58.9966 24.8262H56.8962L56.2694 23.3746ZM55.4226 8.81462L58.1168 23.4845L57.424 24.8262H54.9937L51.5957 8.81462H55.4226ZM64.1432 23.4076L66.8154 8.81462H70.6314L67.2333 24.8262H64.814L64.1432 23.4076ZM62.7356 8.81462L66.0017 23.4626L65.3418 24.8262H63.2414L59.7664 10.0353L60.8441 8.81462H62.7356Z" fill="#F8F7EC"/>
<path d="M82.984 17.6892L80.0368 16.9963L81.0045 8.81462H90.3629V11.6958H84.0287L83.6658 14.8739C83.8418 14.7713 84.1387 14.6503 84.5566 14.511C84.9818 14.3644 85.451 14.2911 85.9642 14.2911C86.7559 14.2911 87.4561 14.4121 88.0646 14.654C88.6804 14.8886 89.2009 15.2368 89.6261 15.6987C90.0514 16.1532 90.3703 16.7141 90.5829 17.3812C90.8028 18.0484 90.9128 18.8108 90.9128 19.6686C90.9128 20.3577 90.7992 21.0249 90.5719 21.67C90.3519 22.3079 90.011 22.8834 89.5492 23.3966C89.0946 23.9024 88.5191 24.3056 87.8226 24.6062C87.1262 24.8995 86.3014 25.0461 85.3483 25.0461C84.6372 25.0461 83.9444 24.9361 83.2699 24.7162C82.5954 24.4963 81.9869 24.181 81.4444 23.7705C80.9092 23.3526 80.484 22.8504 80.1688 22.2639C79.8609 21.67 79.7106 21.0066 79.7179 20.2734H83.4459C83.4679 20.662 83.5595 20.9992 83.7208 21.2852C83.8821 21.5711 84.0983 21.7947 84.3696 21.956C84.6482 22.1099 84.9671 22.1869 85.3263 22.1869C85.6929 22.1869 85.9972 22.1136 86.2391 21.967C86.481 21.8203 86.6716 21.6187 86.8109 21.3621C86.9502 21.1055 87.0492 20.8123 87.1078 20.4824C87.1665 20.1451 87.1958 19.7896 87.1958 19.4157C87.1958 19.0198 87.1518 18.6642 87.0639 18.349C86.9832 18.0337 86.8513 17.7661 86.668 17.5462C86.4847 17.3189 86.2464 17.1466 85.9532 17.0293C85.6672 16.912 85.3227 16.8534 84.9195 16.8534C84.3843 16.8534 83.9627 16.945 83.6548 17.1283C83.3469 17.3116 83.1233 17.4985 82.984 17.6892ZM104.285 18.5689V21.4281H92.7603L92.5403 19.1627L98.9735 8.81462H101.899L98.7206 14.0162L96.0814 18.5689H104.285ZM102.669 8.81462V24.8262H98.9626V8.81462H102.669Z" fill="#1F6363"/>
</svg>
