<svg width="45" height="45" viewBox="0 0 45 45" fill="none" xmlns="http://www.w3.org/2000/svg">
<path d="M25.1836 17.1429C26.4428 17.1429 27.473 16.1786 27.473 15V10.7143H32.0519C33.311 10.7143 34.3413 9.75 34.3413 8.57143C34.3413 7.39286 33.311 6.42857 32.0519 6.42857H27.473V2.14286C27.473 0.964286 26.4428 0 25.1836 0C23.9244 0 22.8942 0.964286 22.8942 2.14286V6.42857H18.3154C17.0562 6.42857 16.0259 7.39286 16.0259 8.57143C16.0259 9.75 17.0562 10.7143 18.3154 10.7143H22.8942V15C22.8942 16.1786 23.9244 17.1429 25.1836 17.1429ZM13.7365 36.4286C11.2182 36.4286 9.18057 38.3571 9.18057 40.7143C9.18057 43.0714 11.2182 45 13.7365 45C16.2549 45 18.3154 43.0714 18.3154 40.7143C18.3154 38.3571 16.2549 36.4286 13.7365 36.4286ZM36.6307 36.4286C34.1123 36.4286 32.0748 38.3571 32.0748 40.7143C32.0748 43.0714 34.1123 45 36.6307 45C39.1491 45 41.2095 43.0714 41.2095 40.7143C41.2095 38.3571 39.1491 36.4286 36.6307 36.4286ZM16.2549 25.7143H33.311C35.0281 25.7143 36.5391 24.8357 37.3175 23.5071L44.7352 10.35C45.015 9.85452 45.0758 9.27606 44.9045 8.73906C44.7333 8.20205 44.3436 7.74943 43.8195 7.47857C43.554 7.34247 43.2622 7.25721 42.9611 7.22776C42.6601 7.1983 42.3558 7.22525 42.0659 7.30703C41.7761 7.38881 41.5066 7.52378 41.2731 7.70408C41.0396 7.88437 40.8468 8.10637 40.7059 8.35714L33.311 21.4286H17.2393L7.4864 2.14286H2.28942C1.03024 2.14286 0 3.10714 0 4.28571C0 5.46429 1.03024 6.42857 2.28942 6.42857H4.57884L12.8207 22.6929L9.73003 27.9214C8.05875 30.7929 10.2566 34.2857 13.7365 34.2857H38.9201C40.1793 34.2857 41.2095 33.3214 41.2095 32.1429C41.2095 30.9643 40.1793 30 38.9201 30H13.7365L16.2549 25.7143Z" fill="black"/>
</svg>
